# xmcd
#
# Track frame offsets: 
#        150
#        14000
#        27638
#        40429
#        51757
#        63672
#        76443
#        88863
#        101809
#        115736
#        130850
#        143039
#        155673
#        168448
#        183204
#        194764
#        206987
#        219643
#        232704
#        247482
#        261792
#        276152
#        290815
#        302005
#        315519
#
# Disc length: 4368 seconds
#
# Revision: 0
# Processed by: cddbd v1.5.2PL0 Copyright (c) Steve Scherf et al.
# Submitted via: ExactAudioCopy v0.99pb4
#
DISCID=88110e19
DTITLE=Louis Jordan - The Essence of Louis Jordan
DYEAR=2006
DGENRE=R&B
TTITLE0=Ain't Nobody Here But Us Chickens
TTITLE1=Open the Door Richard
TTITLE2=Beans and Cornbread
TTITLE3=Pettin' and Pokin'
TTITLE4=I Like 'Em Fat Like That
TTITLE5=Barnyard Boogie
TTITLE6=Boogie Woogie Blue Plate
TTITLE7=Look Out
TTITLE8=I Know What You're Puttin' Down
TTITLE9=Early in the Morning
TTITLE10=Reet Petite and Gone
TTITLE11=We Can't Agree
TTITLE12=All for the Love of Lili
TTITLE13=Daddy-O
TTITLE14=School Days
TTITLE15=Cole Slaw (Shorghum Switch)
TTITLE16=You Broke Your Promise
TTITLE17=Roamin' Blues
TTITLE18=Every Man to His Own Profession
TTITLE19=I'll Never Be Free
TTITLE20=Tamburitza Boogie
TTITLE21=Lemonade
TTITLE22=Weak Minded Blues
TTITLE23=Teardrops from My Eyes
TTITLE24=Baby It's Cold Outside
EXTD=
EXTT0=
EXTT1=
EXTT2=
EXTT3=
EXTT4=
EXTT5=
EXTT6=
EXTT7=
EXTT8=
EXTT9=
EXTT10=
EXTT11=
EXTT12=
EXTT13=
EXTT14=
EXTT15=
EXTT16=
EXTT17=
EXTT18=
EXTT19=
EXTT20=
EXTT21=
EXTT22=
EXTT23=
EXTT24=
PLAYORDER=
